<?xml version="1.0" encoding="UTF-8" standalone="no"?>
<svg
   xmlns:dc="http://purl.org/dc/elements/1.1/"
   xmlns:cc="http://creativecommons.org/ns#"
   xmlns:rdf="http://www.w3.org/1999/02/22-rdf-syntax-ns#"
   xmlns:svg="http://www.w3.org/2000/svg"
   xmlns="http://www.w3.org/2000/svg"
   xmlns:sodipodi="http://sodipodi.sourceforge.net/DTD/sodipodi-0.dtd"
   xmlns:inkscape="http://www.inkscape.org/namespaces/inkscape"
   id="svg8"
   version="1.1"
   viewBox="0 0 112.55984 25.657141"
   height="25.657141mm"
   width="112.55984mm"
   sodipodi:docname="logo.plain.white.svg"
   inkscape:version="0.92.4 5da689c313, 2019-01-14">
  <sodipodi:namedview
     pagecolor="#000000"
     bordercolor="#666666"
     borderopacity="1"
     objecttolerance="10"
     gridtolerance="10"
     guidetolerance="10"
     inkscape:pageopacity="0"
     inkscape:pageshadow="2"
     inkscape:window-width="1920"
     inkscape:window-height="1020"
     id="namedview31"
     showgrid="false"
     fit-margin-top="4"
     fit-margin-left="6"
     fit-margin-right="6"
     fit-margin-bottom="4"
     inkscape:zoom="2.3786088"
     inkscape:cx="214.14777"
     inkscape:cy="26.113108"
     inkscape:window-x="0"
     inkscape:window-y="32"
     inkscape:window-maximized="1"
     inkscape:current-layer="svg8" />
  <defs
     id="defs2" />
  <metadata
     id="metadata5">
    <rdf:RDF>
      <cc:Work
         rdf:about="">
        <dc:format>image/svg+xml</dc:format>
        <dc:type
           rdf:resource="http://purl.org/dc/dcmitype/StillImage" />
        <dc:title></dc:title>
      </cc:Work>
    </rdf:RDF>
  </metadata>
  <g
     aria-label="ONE"
     transform="matrix(0,-0.20571564,0.20571564,0,-63.203175,50.510553)"
     style="font-style:normal;font-weight:normal;font-size:40px;line-height:25px;font-family:sans-serif;letter-spacing:0px;word-spacing:0px;fill:#000000;fill-opacity:1;stroke:none;stroke-width:1px;stroke-linecap:butt;stroke-linejoin:miter;stroke-opacity:1"
     id="flowRoot4518-7-1">
    <path
       d="m 168.56039,351.04211 c 0,-2.14 -0.34,-4.1 -1.02,-5.9 -0.68,-1.8 -1.64,-3.34 -2.88,-4.64 -1.24,-1.3 -2.74,-2.3 -4.48,-3.02 -1.74,-0.72 -3.66,-1.08 -5.76,-1.08 -2.1,0 -4.02,0.36 -5.76,1.08 -1.74,0.72 -3.22,1.74 -4.46,3.04 -1.24,1.3 -2.2,2.84 -2.88,4.64 -0.68,1.8 -1.02,3.78 -1.02,5.92 0,2.14 0.34,4.12 1.02,5.92 0.68,1.8 1.64,3.34 2.88,4.64 1.24,1.3 2.72,2.3 4.46,3.02 1.74,0.72 3.66,1.08 5.76,1.08 2.1,0 4.02,-0.36 5.76,-1.08 1.74,-0.72 3.22,-1.72 4.46,-3.02 1.24,-1.3 2.2,-2.84 2.88,-4.64 0.68,-1.8 1.02,-3.76 1.02,-5.9 z m -4,0.06 c 0,1.76 -0.24,3.34 -0.72,4.74 -0.48,1.4 -1.16,2.58 -2.04,3.54 -0.88,0.96 -1.94,1.7 -3.2,2.22 -1.26,0.52 -2.66,0.78 -4.2,0.78 -1.54,0 -2.94,-0.26 -4.2,-0.78 -1.26,-0.52 -2.34,-1.26 -3.22,-2.22 -0.88,-0.96 -1.56,-2.14 -2.04,-3.54 -0.48,-1.4 -0.72,-2.98 -0.72,-4.74 0,-1.76 0.24,-3.34 0.72,-4.74 0.48,-1.4 1.16,-2.58 2.04,-3.54 0.88,-0.96 1.94,-1.7 3.2,-2.22 1.26,-0.52 2.66,-0.78 4.2,-0.78 1.54,0 2.94,0.26 4.2,0.78 1.26,0.52 2.32,1.26 3.2,2.22 0.88,0.96 1.56,2.14 2.04,3.54 0.48,1.4 0.72,2.98 0.72,4.74 z"
       style="font-style:normal;font-variant:normal;font-weight:normal;font-stretch:normal;font-size:40px;font-family:Aleo;-inkscape-font-specification:'Aleo, Normal';font-variant-ligatures:normal;font-variant-caps:normal;font-variant-numeric:normal;font-feature-settings:normal;text-align:start;writing-mode:lr-tb;text-anchor:start;fill:#ffffff;fill-opacity:1"
       id="path915"
       inkscape:connector-curvature="0" />
    <path
       d="m 193.26789,358.96211 -16.6,-21.6 c -0.22,-0.26 -0.42,-0.44 -0.58,-0.52 -0.16,-0.08 -0.42,-0.12 -0.76,-0.12 h -4.88 v 1.72 c 0,0.42 0.2,0.66 0.6,0.74 0.24,0.06 1,0.22 2.28,0.48 v 22.82 l -2.28,0.46 c -0.4,0.08 -0.6,0.32 -0.6,0.74 v 1.72 h 9.54 v -1.72 c 0,-0.42 -0.2,-0.66 -0.6,-0.74 -0.2,-0.04 -1.08,-0.2 -2.66,-0.46 v -17.5 c 0,-0.56 -0.02,-1.18 -0.08,-1.86 l 16.58,21.58 c 0.38,0.46 0.84,0.7 1.38,0.7 h 1.96 v -25.74 l 2.28,-0.46 c 0.42,-0.08 0.62,-0.32 0.62,-0.74 v -1.72 h -2.9 -3.4 -3.26 v 1.72 c 0,0.42 0.2,0.66 0.6,0.74 0.22,0.04 1.1,0.2 2.66,0.46 v 17.38 c 0,0.74 0.04,1.4 0.1,1.98 z"
       style="font-style:normal;font-variant:normal;font-weight:normal;font-stretch:normal;font-size:40px;font-family:Aleo;-inkscape-font-specification:'Aleo, Normal';font-variant-ligatures:normal;font-variant-caps:normal;font-variant-numeric:normal;font-feature-settings:normal;text-align:start;writing-mode:lr-tb;text-anchor:start;fill:#ffffff;fill-opacity:1"
       id="path917"
       inkscape:connector-curvature="0" />
    <path
       d="m 201.46352,336.70211 v 1.72 c 0,0.42 0.2,0.66 0.6,0.74 0.24,0.06 1,0.22 2.28,0.48 v 22.82 l -2.28,0.46 c -0.4,0.08 -0.6,0.32 -0.6,0.74 v 1.72 h 20.54 v -6.68 h -1.92 c -0.46,0 -0.74,0.22 -0.84,0.68 -0.02,0.12 -0.1,1.06 -0.24,2.84 h -10.74 v -9.78 h 10.56 v -3.04 h -10.56 v -9.52 h 10.72 c 0.16,1.92 0.26,2.94 0.28,3.06 0.1,0.46 0.38,0.7 0.84,0.7 h 1.92 v -6.92 z"
       style="font-style:normal;font-variant:normal;font-weight:normal;font-stretch:normal;font-size:40px;font-family:Aleo;-inkscape-font-specification:'Aleo, Normal';font-variant-ligatures:normal;font-variant-caps:normal;font-variant-numeric:normal;font-feature-settings:normal;text-align:start;writing-mode:lr-tb;text-anchor:start;fill:#ffffff;fill-opacity:1"
       id="path919"
       inkscape:connector-curvature="0" />
  </g>
  <g
     aria-label="SECRETARY"
     transform="matrix(0.26458333,0,0,0.26458333,-22.61114,-75.101542)"
     style="font-style:normal;font-weight:normal;font-size:40px;line-height:25px;font-family:sans-serif;letter-spacing:0px;word-spacing:0px;fill:#000000;fill-opacity:1;stroke:none;stroke-width:1px;stroke-linecap:butt;stroke-linejoin:miter;stroke-opacity:1"
     id="flowRoot4518-7-0">
    <path
       d="m 154.42039,350.20211 c -0.94,-0.42 -2.62,-1.02 -5.02,-1.82 -0.84,-0.28 -1.58,-0.6 -2.22,-0.98 -1.44,-0.82 -2.16,-1.94 -2.16,-3.34 0,-1.3 0.46,-2.36 1.36,-3.16 0.96,-0.86 2.28,-1.3 3.96,-1.3 1.36,0 2.94,0.26 4.72,0.76 0.18,2.3 0.28,3.48 0.3,3.56 0.08,0.46 0.36,0.68 0.82,0.68 h 1.94 v -6.58 c -2.74,-1.1 -5.42,-1.64 -8.04,-1.64 -2.62,0 -4.76,0.8 -6.4,2.42 -1.54,1.5 -2.3,3.32 -2.3,5.46 0,2.28 0.72,4.06 2.14,5.34 0.64,0.58 1.38,1.06 2.2,1.42 0.82,0.36 2.5,0.94 5.04,1.72 0.82,0.26 1.54,0.58 2.18,0.96 1.42,0.82 2.14,2 2.14,3.52 0,1.58 -0.52,2.84 -1.54,3.78 -0.5,0.46 -1.12,0.82 -1.84,1.08 -0.72,0.26 -1.7,0.38 -2.96,0.38 -1.26,0 -2.88,-0.36 -4.86,-1.1 0,-0.02 -0.04,-0.6 -0.12,-1.74 -0.08,-1.14 -0.14,-1.8 -0.18,-1.98 -0.1,-0.46 -0.38,-0.68 -0.84,-0.68 h -1.94 v 7.18 l 1.14,0.4 c 0.78,0.26 1.86,0.52 3.24,0.78 1.38,0.26 2.68,0.38 3.92,0.38 2.96,0 5.32,-0.88 7.1,-2.62 1.66,-1.66 2.5,-3.8 2.5,-6.42 0,-3 -1.44,-5.16 -4.34,-6.46 z"
       style="letter-spacing:2.65000081px;fill:#0099cc;fill-opacity:1"
       id="path877"
       inkscape:connector-curvature="0" />
    <path
       d="m 163.64477,336.70211 v 1.72 c 0,0.42 0.2,0.66 0.6,0.74 0.24,0.06 1,0.22 2.28,0.48 v 22.82 l -2.28,0.46 c -0.4,0.08 -0.6,0.32 -0.6,0.74 v 1.72 h 20.54 v -6.68 h -1.92 c -0.46,0 -0.74,0.22 -0.84,0.68 -0.02,0.12 -0.1,1.06 -0.24,2.84 h -10.74 v -9.78 h 10.56 v -3.04 h -10.56 v -9.52 h 10.72 c 0.16,1.92 0.26,2.94 0.28,3.06 0.1,0.46 0.38,0.7 0.84,0.7 h 1.92 v -6.92 z"
       style="letter-spacing:2.65000081px;fill:#0099cc;fill-opacity:1"
       id="path879"
       inkscape:connector-curvature="0" />
    <path
       d="m 203.95039,336.38211 c -4.4,0 -7.94,1.36 -10.6,4.08 -2.66,2.72 -4,6.24 -4,10.58 0,4.34 1.24,7.86 3.74,10.56 2.5,2.72 5.8,4.08 9.9,4.08 4.4,0 7.84,-1.44 10.32,-4.32 l -1.52,-1.66 c -0.18,-0.18 -0.38,-0.26 -0.6,-0.26 -0.22,0 -0.44,0.1 -0.66,0.3 -1.06,0.94 -2.24,1.64 -3.54,2.12 -0.86,0.32 -2.12,0.48 -3.78,0.48 -2.9,0 -5.26,-1 -7.08,-2.98 -1.92,-2.08 -2.88,-4.86 -2.88,-8.32 0,-3.46 0.98,-6.22 2.92,-8.28 3.02,-3.2 7.52,-3.86 13.5,-1.96 0.02,0.14 0.06,0.74 0.14,1.8 0.08,1.06 0.14,1.66 0.18,1.82 0.1,0.46 0.38,0.68 0.84,0.68 h 1.94 v -4.44 -2.24 c -3.64,-1.38 -6.6,-2.06 -8.86,-2.06 z"
       style="letter-spacing:2.65000081px;fill:#0099cc;fill-opacity:1"
       id="path881"
       inkscape:connector-curvature="0" />
    <path
       d="m 241.61102,362.90211 c -0.32,-0.06 -1.98,-0.4 -2.22,-0.44 l -6.22,-8.46 c -0.38,-0.54 -0.8,-0.94 -1.28,-1.22 1.1,-0.26 2.08,-0.64 2.96,-1.14 0.88,-0.5 1.62,-1.1 2.22,-1.8 0.6,-0.7 1.06,-1.5 1.38,-2.38 0.32,-0.88 0.48,-1.82 0.48,-2.84 0,-1.22 -0.2,-2.32 -0.62,-3.3 -0.42,-0.98 -1.06,-1.82 -1.92,-2.52 -0.86,-0.7 -1.96,-1.24 -3.28,-1.6 -1.32,-0.36 -2.88,-0.54 -4.7,-0.54 h -7.72 -2.88 v 1.72 c 0,0.36 0.26,0.68 0.62,0.74 0.36,0.08 2.28,0.46 2.28,0.46 v 22.82 c 0,0 -1.92,0.38 -2.28,0.46 -0.36,0.06 -0.62,0.38 -0.62,0.74 v 1.72 h 2.88 3.86 2.88 v -1.72 c 0,-0.36 -0.26,-0.68 -0.62,-0.74 -0.34,-0.06 -2.24,-0.44 -2.26,-0.44 v -9.04 h 2.56 c 0.54,0 0.94,0.08 1.2,0.22 0.26,0.14 0.5,0.36 0.72,0.68 l 7.44,10.24 c 0.34,0.54 0.86,0.82 1.56,0.82 h 1.26 2.18 0.72 v -1.72 c 0,-0.36 -0.26,-0.68 -0.62,-0.74 z m -13.4,-12.34 h -3.68 v -10.82 h 3.86 c 2.22,0 3.9,0.44 5.02,1.3 1.12,0.86 1.68,2.14 1.68,3.84 0,0.84 -0.14,1.6 -0.44,2.3 -0.3,0.7 -0.74,1.3 -1.32,1.8 -0.58,0.5 -1.3,0.88 -2.16,1.16 -0.86,0.28 -1.86,0.42 -3,0.42 z"
       style="letter-spacing:2.65000081px;fill:#ffffff;fill-opacity:1"
       id="path883"
       inkscape:connector-curvature="0" />
    <path
       d="m 247.2979,336.70211 v 1.72 c 0,0.42 0.2,0.66 0.6,0.74 0.24,0.06 1,0.22 2.28,0.48 v 22.82 l -2.28,0.46 c -0.4,0.08 -0.6,0.32 -0.6,0.74 v 1.72 h 20.54 v -6.68 h -1.92 c -0.46,0 -0.74,0.22 -0.84,0.68 -0.02,0.12 -0.1,1.06 -0.24,2.84 h -10.74 v -9.78 h 10.56 v -3.04 h -10.56 v -9.52 h 10.72 c 0.16,1.92 0.26,2.94 0.28,3.06 0.1,0.46 0.38,0.7 0.84,0.7 h 1.92 v -6.92 z"
       style="letter-spacing:2.65000081px;fill:#ffffff;fill-opacity:1"
       id="path885"
       inkscape:connector-curvature="0" />
    <path
       d="m 295.94352,336.70211 h -1.38 -21.58 v 6.34 h 1.94 c 0.46,0 0.72,-0.14 0.78,-0.42 0.06,-0.28 0.18,-1.16 0.36,-2.66 h 6.76 v 22.48 c -1.02,0.2 -1.76,0.34 -2.2,0.44 -0.44,0.1 -0.66,0.36 -0.66,0.78 v 1.72 h 9.66 v -1.72 c 0,-0.42 -0.14,-0.66 -0.42,-0.72 -0.28,-0.06 -0.94,-0.18 -1.96,-0.38 -0.32,-0.06 -0.48,-0.1 -0.5,-0.1 v -22.48 h 6.74 c 0.18,1.5 0.3,2.38 0.36,2.66 0.06,0.28 0.32,0.42 0.78,0.42 h 1.94 v -6.34 z"
       style="letter-spacing:-1.5px;fill:#ffffff;fill-opacity:1"
       id="path887"
       inkscape:connector-curvature="0" />
    <path
       d="m 325.15977,363.12211 -1.6,-0.48 -10.36,-25.94 h -3.94 l -10.38,25.94 -1.6,0.48 c -0.34,0.08 -0.52,0.3 -0.52,0.66 v 1.58 h 8.22 v -1.58 c 0,-0.36 -0.18,-0.58 -0.54,-0.68 l -1.64,-0.46 2.24,-5.78 h 12.36 l 2.24,5.78 -1.64,0.46 c -0.36,0.1 -0.54,0.32 -0.54,0.68 v 1.58 h 8.22 v -1.58 c 0,-0.36 -0.18,-0.58 -0.52,-0.66 z m -19.04,-9.06 4.26,-10.98 c 0.24,-0.64 0.52,-1.54 0.84,-2.72 0.28,1.08 0.56,1.98 0.86,2.7 l 4.24,11 z"
       style="letter-spacing:0.11999994px;fill:#ffffff;fill-opacity:1"
       id="path889"
       inkscape:connector-curvature="0" />
    <path
       d="m 351.93728,362.90211 c -0.32,-0.06 -1.98,-0.4 -2.22,-0.44 l -6.22,-8.46 c -0.38,-0.54 -0.8,-0.94 -1.28,-1.22 1.1,-0.26 2.08,-0.64 2.96,-1.14 0.88,-0.5 1.62,-1.1 2.22,-1.8 0.6,-0.7 1.06,-1.5 1.38,-2.38 0.32,-0.88 0.48,-1.82 0.48,-2.84 0,-1.22 -0.2,-2.32 -0.62,-3.3 -0.42,-0.98 -1.06,-1.82 -1.92,-2.52 -0.86,-0.7 -1.96,-1.24 -3.28,-1.6 -1.32,-0.36 -2.88,-0.54 -4.7,-0.54 h -7.72 -2.88 v 1.72 c 0,0.36 0.26,0.68 0.62,0.74 0.36,0.08 2.28,0.46 2.28,0.46 v 22.82 c 0,0 -1.92,0.38 -2.28,0.46 -0.36,0.06 -0.62,0.38 -0.62,0.74 v 1.72 h 2.88 3.86 2.88 v -1.72 c 0,-0.36 -0.26,-0.68 -0.62,-0.74 -0.34,-0.06 -2.24,-0.44 -2.26,-0.44 v -9.04 h 2.56 c 0.54,0 0.94,0.08 1.2,0.22 0.26,0.14 0.5,0.36 0.72,0.68 l 7.44,10.24 c 0.34,0.54 0.86,0.82 1.56,0.82 h 1.26 2.18 0.72 v -1.72 c 0,-0.36 -0.26,-0.68 -0.62,-0.74 z m -13.4,-12.34 h -3.68 v -10.82 h 3.86 c 2.22,0 3.9,0.44 5.02,1.3 1.12,0.86 1.68,2.14 1.68,3.84 0,0.84 -0.14,1.6 -0.44,2.3 -0.3,0.7 -0.74,1.3 -1.32,1.8 -0.58,0.5 -1.3,0.88 -2.16,1.16 -0.86,0.28 -1.86,0.42 -3,0.42 z"
       style="letter-spacing:-1.33000004px;fill:#ffffff;fill-opacity:1"
       id="path891"
       inkscape:connector-curvature="0" />
    <path
       d="m 369.94415,336.70211 v 1.72 c 0,0.42 0.2,0.66 0.6,0.74 1.36,0.28 2.12,0.44 2.28,0.46 l -5.36,9.12 c -0.4,0.68 -0.78,1.52 -1.14,2.54 -0.34,-0.94 -0.72,-1.78 -1.14,-2.52 l -5.36,-9.12 c 0.14,-0.02 0.9,-0.18 2.26,-0.46 0.42,-0.08 0.62,-0.32 0.62,-0.74 v -1.72 h -9.64 v 1.72 c 0,0.42 0.18,0.66 0.56,0.74 0.38,0.08 1.06,0.24 2.04,0.48 l 8.72,14.34 v 8.48 l -2.28,0.46 c -0.4,0.08 -0.6,0.32 -0.6,0.74 v 1.72 h 2.88 3.86 2.88 v -1.72 c 0,-0.42 -0.2,-0.66 -0.6,-0.74 -1.34,-0.26 -2.1,-0.42 -2.28,-0.46 v -8.48 l 8.74,-14.34 c 1.06,-0.26 1.76,-0.42 2.1,-0.48 0.34,-0.06 0.5,-0.3 0.5,-0.72 v -1.72 z"
       style="letter-spacing:1.36000001px;fill:#ffffff;fill-opacity:1"
       id="path893"
       inkscape:connector-curvature="0" />
  </g>
  <g
     aria-label="CORPORATE"
     transform="matrix(0.26458333,0,0,0.26458333,-23.103713,-84.995807)"
     style="font-style:normal;font-weight:normal;font-size:40px;line-height:25px;font-family:sans-serif;letter-spacing:0px;word-spacing:0px;fill:#000000;fill-opacity:1;stroke:none;stroke-width:1px;stroke-linecap:butt;stroke-linejoin:miter;stroke-opacity:1"
     id="flowRoot4518-7-1-9">
    <path
       d="m 154.90039,336.38211 c -4.4,0 -7.94,1.36 -10.6,4.08 -2.66,2.72 -4,6.24 -4,10.58 0,4.34 1.24,7.86 3.74,10.56 2.5,2.72 5.8,4.08 9.9,4.08 4.4,0 7.84,-1.44 10.32,-4.32 l -1.52,-1.66 c -0.18,-0.18 -0.38,-0.26 -0.6,-0.26 -0.22,0 -0.44,0.1 -0.66,0.3 -1.06,0.94 -2.24,1.64 -3.54,2.12 -0.86,0.32 -2.12,0.48 -3.78,0.48 -2.9,0 -5.26,-1 -7.08,-2.98 -1.92,-2.08 -2.88,-4.86 -2.88,-8.32 0,-3.46 0.98,-6.22 2.92,-8.28 3.02,-3.2 7.52,-3.86 13.5,-1.96 0.02,0.14 0.06,0.74 0.14,1.8 0.08,1.06 0.14,1.66 0.18,1.82 0.1,0.46 0.38,0.68 0.84,0.68 h 1.94 v -4.44 -2.24 c -3.64,-1.38 -6.6,-2.06 -8.86,-2.06 z"
       style="fill:#0099cc;fill-opacity:1"
       id="path896"
       inkscape:connector-curvature="0" />
    <path
       d="m 193.95102,351.04211 c 0,-2.14 -0.34,-4.1 -1.02,-5.9 -0.68,-1.8 -1.64,-3.34 -2.88,-4.64 -1.24,-1.3 -2.74,-2.3 -4.48,-3.02 -1.74,-0.72 -3.66,-1.08 -5.76,-1.08 -2.1,0 -4.02,0.36 -5.76,1.08 -1.74,0.72 -3.22,1.74 -4.46,3.04 -1.24,1.3 -2.2,2.84 -2.88,4.64 -0.68,1.8 -1.02,3.78 -1.02,5.92 0,2.14 0.34,4.12 1.02,5.92 0.68,1.8 1.64,3.34 2.88,4.64 1.24,1.3 2.72,2.3 4.46,3.02 1.74,0.72 3.66,1.08 5.76,1.08 2.1,0 4.02,-0.36 5.76,-1.08 1.74,-0.72 3.22,-1.72 4.46,-3.02 1.24,-1.3 2.2,-2.84 2.88,-4.64 0.68,-1.8 1.02,-3.76 1.02,-5.9 z m -4,0.06 c 0,1.76 -0.24,3.34 -0.72,4.74 -0.48,1.4 -1.16,2.58 -2.04,3.54 -0.88,0.96 -1.94,1.7 -3.2,2.22 -1.26,0.52 -2.66,0.78 -4.2,0.78 -1.54,0 -2.94,-0.26 -4.2,-0.78 -1.26,-0.52 -2.34,-1.26 -3.22,-2.22 -0.88,-0.96 -1.56,-2.14 -2.04,-3.54 -0.48,-1.4 -0.72,-2.98 -0.72,-4.74 0,-1.76 0.24,-3.34 0.72,-4.74 0.48,-1.4 1.16,-2.58 2.04,-3.54 0.88,-0.96 1.94,-1.7 3.2,-2.22 1.26,-0.52 2.66,-0.78 4.2,-0.78 1.54,0 2.94,0.26 4.2,0.78 1.26,0.52 2.32,1.26 3.2,2.22 0.88,0.96 1.56,2.14 2.04,3.54 0.48,1.4 0.72,2.98 0.72,4.74 z"
       style="fill:#0099cc;fill-opacity:1"
       id="path898"
       inkscape:connector-curvature="0" />
    <path
       d="m 220.06727,362.90211 c -0.32,-0.06 -1.98,-0.4 -2.22,-0.44 l -6.22,-8.46 c -0.38,-0.54 -0.8,-0.94 -1.28,-1.22 1.1,-0.26 2.08,-0.64 2.96,-1.14 0.88,-0.5 1.62,-1.1 2.22,-1.8 0.6,-0.7 1.06,-1.5 1.38,-2.38 0.32,-0.88 0.48,-1.82 0.48,-2.84 0,-1.22 -0.2,-2.32 -0.62,-3.3 -0.42,-0.98 -1.06,-1.82 -1.92,-2.52 -0.86,-0.7 -1.96,-1.24 -3.28,-1.6 -1.32,-0.36 -2.88,-0.54 -4.7,-0.54 h -7.72 -2.88 v 1.72 c 0,0.36 0.26,0.68 0.62,0.74 0.36,0.08 2.28,0.46 2.28,0.46 v 22.82 c 0,0 -1.92,0.38 -2.28,0.46 -0.36,0.06 -0.62,0.38 -0.62,0.74 v 1.72 h 2.88 3.86 2.88 v -1.72 c 0,-0.36 -0.26,-0.68 -0.62,-0.74 -0.34,-0.06 -2.24,-0.44 -2.26,-0.44 v -9.04 h 2.56 c 0.54,0 0.94,0.08 1.2,0.22 0.26,0.14 0.5,0.36 0.72,0.68 l 7.44,10.24 c 0.34,0.54 0.86,0.82 1.56,0.82 h 1.26 2.18 0.72 v -1.72 c 0,-0.36 -0.26,-0.68 -0.62,-0.74 z m -13.4,-12.34 h -3.68 v -10.82 h 3.86 c 2.22,0 3.9,0.44 5.02,1.3 1.12,0.86 1.68,2.14 1.68,3.84 0,0.84 -0.14,1.6 -0.44,2.3 -0.3,0.7 -0.74,1.3 -1.32,1.8 -0.58,0.5 -1.3,0.88 -2.16,1.16 -0.86,0.28 -1.86,0.42 -3,0.42 z"
       style="fill:#0099cc;fill-opacity:1"
       id="path900"
       inkscape:connector-curvature="0" />
    <path
       d="m 238.64414,337.32211 c -1.34,-0.42 -2.92,-0.62 -4.74,-0.62 h -10.8 v 1.72 c 0,0.42 0.2,0.66 0.6,0.74 0.24,0.06 1,0.22 2.28,0.48 v 22.82 l -2.28,0.46 c -0.4,0.08 -0.6,0.32 -0.6,0.74 v 1.72 h 9.62 v -1.72 c 0,-0.42 -0.2,-0.66 -0.6,-0.74 -1.26,-0.26 -2.02,-0.42 -2.28,-0.48 v -7.8 h 4.06 c 3.38,0 6.02,-0.84 7.92,-2.54 1.82,-1.62 2.74,-3.8 2.74,-6.52 0,-4.26 -1.98,-7.02 -5.94,-8.28 z m 2.04,8.24 c 0,1.82 -0.6,3.28 -1.78,4.36 -1.18,1.08 -2.86,1.62 -5.02,1.62 h -4.06 v -11.8 h 4.06 c 2.28,0 3.98,0.52 5.1,1.54 1.12,1.02 1.68,2.44 1.68,4.26 z"
       style="letter-spacing:1.6500001px;fill:#0099cc;fill-opacity:1"
       id="path902"
       inkscape:connector-curvature="0" />
    <path
       d="m 276.22602,351.04211 c 0,-2.14 -0.34,-4.1 -1.02,-5.9 -0.68,-1.8 -1.64,-3.34 -2.88,-4.64 -1.24,-1.3 -2.74,-2.3 -4.48,-3.02 -1.74,-0.72 -3.66,-1.08 -5.76,-1.08 -2.1,0 -4.02,0.36 -5.76,1.08 -1.74,0.72 -3.22,1.74 -4.46,3.04 -1.24,1.3 -2.2,2.84 -2.88,4.64 -0.68,1.8 -1.02,3.78 -1.02,5.92 0,2.14 0.34,4.12 1.02,5.92 0.68,1.8 1.64,3.34 2.88,4.64 1.24,1.3 2.72,2.3 4.46,3.02 1.74,0.72 3.66,1.08 5.76,1.08 2.1,0 4.02,-0.36 5.76,-1.08 1.74,-0.72 3.22,-1.72 4.46,-3.02 1.24,-1.3 2.2,-2.84 2.88,-4.64 0.68,-1.8 1.02,-3.76 1.02,-5.9 z m -4,0.06 c 0,1.76 -0.24,3.34 -0.72,4.74 -0.48,1.4 -1.16,2.58 -2.04,3.54 -0.88,0.96 -1.94,1.7 -3.2,2.22 -1.26,0.52 -2.66,0.78 -4.2,0.78 -1.54,0 -2.94,-0.26 -4.2,-0.78 -1.26,-0.52 -2.34,-1.26 -3.22,-2.22 -0.88,-0.96 -1.56,-2.14 -2.04,-3.54 -0.48,-1.4 -0.72,-2.98 -0.72,-4.74 0,-1.76 0.24,-3.34 0.72,-4.74 0.48,-1.4 1.16,-2.58 2.04,-3.54 0.88,-0.96 1.94,-1.7 3.2,-2.22 1.26,-0.52 2.66,-0.78 4.2,-0.78 1.54,0 2.94,0.26 4.2,0.78 1.26,0.52 2.32,1.26 3.2,2.22 0.88,0.96 1.56,2.14 2.04,3.54 0.48,1.4 0.72,2.98 0.72,4.74 z"
       style="font-style:normal;font-variant:normal;font-weight:normal;font-stretch:normal;font-size:40px;font-family:Aleo;-inkscape-font-specification:'Aleo, Normal';font-variant-ligatures:normal;font-variant-caps:normal;font-variant-numeric:normal;font-feature-settings:normal;text-align:start;writing-mode:lr-tb;text-anchor:start;fill:#ffffff;fill-opacity:1"
       id="path904"
       inkscape:connector-curvature="0" />
    <path
       d="m 302.34226,362.90211 c -0.32,-0.06 -1.98,-0.4 -2.22,-0.44 l -6.22,-8.46 c -0.38,-0.54 -0.8,-0.94 -1.28,-1.22 1.1,-0.26 2.08,-0.64 2.96,-1.14 0.88,-0.5 1.62,-1.1 2.22,-1.8 0.6,-0.7 1.06,-1.5 1.38,-2.38 0.32,-0.88 0.48,-1.82 0.48,-2.84 0,-1.22 -0.2,-2.32 -0.62,-3.3 -0.42,-0.98 -1.06,-1.82 -1.92,-2.52 -0.86,-0.7 -1.96,-1.24 -3.28,-1.6 -1.32,-0.36 -2.88,-0.54 -4.7,-0.54 h -7.72 -2.88 v 1.72 c 0,0.36 0.26,0.68 0.62,0.74 0.36,0.08 2.28,0.46 2.28,0.46 v 22.82 c 0,0 -1.92,0.38 -2.28,0.46 -0.36,0.06 -0.62,0.38 -0.62,0.74 v 1.72 h 2.88 3.86 2.88 v -1.72 c 0,-0.36 -0.26,-0.68 -0.62,-0.74 -0.34,-0.06 -2.24,-0.44 -2.26,-0.44 v -9.04 h 2.56 c 0.54,0 0.94,0.08 1.2,0.22 0.26,0.14 0.5,0.36 0.72,0.68 l 7.44,10.24 c 0.34,0.54 0.86,0.82 1.56,0.82 h 1.26 2.18 0.72 v -1.72 c 0,-0.36 -0.26,-0.68 -0.62,-0.74 z m -13.4,-12.34 h -3.68 v -10.82 h 3.86 c 2.22,0 3.9,0.44 5.02,1.3 1.12,0.86 1.68,2.14 1.68,3.84 0,0.84 -0.14,1.6 -0.44,2.3 -0.3,0.7 -0.74,1.3 -1.32,1.8 -0.58,0.5 -1.3,0.88 -2.16,1.16 -0.86,0.28 -1.86,0.42 -3,0.42 z"
       style="font-style:normal;font-variant:normal;font-weight:normal;font-stretch:normal;font-size:40px;font-family:Aleo;-inkscape-font-specification:'Aleo, Normal';font-variant-ligatures:normal;font-variant-caps:normal;font-variant-numeric:normal;font-feature-settings:normal;text-align:start;writing-mode:lr-tb;text-anchor:start;fill:#ffffff;fill-opacity:1"
       id="path906"
       inkscape:connector-curvature="0" />
    <path
       d="m 333.41913,363.12211 -1.6,-0.48 -10.36,-25.94 h -3.94 l -10.38,25.94 -1.6,0.48 c -0.34,0.08 -0.52,0.3 -0.52,0.66 v 1.58 h 8.22 v -1.58 c 0,-0.36 -0.18,-0.58 -0.54,-0.68 l -1.64,-0.46 2.24,-5.78 h 12.36 l 2.24,5.78 -1.64,0.46 c -0.36,0.1 -0.54,0.32 -0.54,0.68 v 1.58 h 8.22 v -1.58 c 0,-0.36 -0.18,-0.58 -0.52,-0.66 z m -19.04,-9.06 4.26,-10.98 c 0.24,-0.64 0.52,-1.54 0.84,-2.72 0.28,1.08 0.56,1.98 0.86,2.7 l 4.24,11 z"
       style="letter-spacing:-2.92000008px;fill:#ffffff;fill-opacity:1"
       id="path908"
       inkscape:connector-curvature="0" />
    <path
       d="m 355.87664,336.70211 h -1.38 -21.58 v 6.34 h 1.94 c 0.46,0 0.72,-0.14 0.78,-0.42 0.06,-0.28 0.18,-1.16 0.36,-2.66 h 6.76 v 22.48 c -1.02,0.2 -1.76,0.34 -2.2,0.44 -0.44,0.1 -0.66,0.36 -0.66,0.78 v 1.72 h 9.66 v -1.72 c 0,-0.42 -0.14,-0.66 -0.42,-0.72 -0.28,-0.06 -0.94,-0.18 -1.96,-0.38 -0.32,-0.06 -0.48,-0.1 -0.5,-0.1 v -22.48 h 6.74 c 0.18,1.5 0.3,2.38 0.36,2.66 0.06,0.28 0.32,0.42 0.78,0.42 h 1.94 v -6.34 z"
       style="font-style:normal;font-variant:normal;font-weight:normal;font-stretch:normal;font-size:40px;font-family:Aleo;-inkscape-font-specification:'Aleo, Normal';font-variant-ligatures:normal;font-variant-caps:normal;font-variant-numeric:normal;font-feature-settings:normal;text-align:start;writing-mode:lr-tb;text-anchor:start;fill:#ffffff;fill-opacity:1"
       id="path910"
       inkscape:connector-curvature="0" />
    <path
       d="m 358.55289,336.70211 v 1.72 c 0,0.42 0.2,0.66 0.6,0.74 0.24,0.06 1,0.22 2.28,0.48 v 22.82 l -2.28,0.46 c -0.4,0.08 -0.6,0.32 -0.6,0.74 v 1.72 h 20.54 v -6.68 h -1.92 c -0.46,0 -0.74,0.22 -0.84,0.68 -0.02,0.12 -0.1,1.06 -0.24,2.84 h -10.74 v -9.78 h 10.56 v -3.04 h -10.56 v -9.52 h 10.72 c 0.16,1.92 0.26,2.94 0.28,3.06 0.1,0.46 0.38,0.7 0.84,0.7 h 1.92 v -6.92 z"
       style="font-style:normal;font-variant:normal;font-weight:normal;font-stretch:normal;font-size:40px;font-family:Aleo;-inkscape-font-specification:'Aleo, Normal';font-variant-ligatures:normal;font-variant-caps:normal;font-variant-numeric:normal;font-feature-settings:normal;text-align:start;writing-mode:lr-tb;text-anchor:start;fill:#ffffff;fill-opacity:1"
       id="path912"
       inkscape:connector-curvature="0" />
  </g>
  <g
     id="g866"
     transform="translate(-2.645834,-0.92647666)">
    <path
       transform="matrix(2.8496993,0,0,1.277838,-326.45715,-177.00354)"
       inkscape:transform-center-y="0.57987113"
       inkscape:transform-center-x="1.2130175e-05"
       d="m 148.86913,147.87471 -1.57199,-2.72276 3.14397,0 z"
       inkscape:randomized="0"
       inkscape:rounded="0"
       inkscape:flatsided="true"
       sodipodi:arg2="2.6179939"
       sodipodi:arg1="1.5707963"
       sodipodi:r2="0.90758568"
       sodipodi:r1="1.8151714"
       sodipodi:cy="146.05954"
       sodipodi:cx="148.86913"
       sodipodi:sides="3"
       id="path1840-7"
       style="display:inline;opacity:0.98999999;vector-effect:none;fill:#ffffff;fill-opacity:1;stroke:#ffffff;stroke-width:2.79400015;stroke-linecap:butt;stroke-linejoin:miter;stroke-miterlimit:4;stroke-dasharray:none;stroke-dashoffset:0;stroke-opacity:1"
       sodipodi:type="star" />
    <path
       transform="matrix(0,-1.6068494,1.0319638,0,-62.005356,253.05328)"
       inkscape:transform-center-y="1.7262879e-05"
       inkscape:transform-center-x="-0.46830725"
       d="m 148.86913,147.87471 -1.57199,-2.72276 3.14397,0 z"
       inkscape:randomized="0"
       inkscape:rounded="0"
       inkscape:flatsided="true"
       sodipodi:arg2="2.6179939"
       sodipodi:arg1="1.5707963"
       sodipodi:r2="0.90758568"
       sodipodi:r1="1.8151714"
       sodipodi:cy="146.05954"
       sodipodi:cx="148.86913"
       sodipodi:sides="3"
       id="path1840-3-7"
       style="display:inline;opacity:0.98999999;vector-effect:none;fill:#ffffff;fill-opacity:1;stroke:#ffffff;stroke-width:2.79400015;stroke-linecap:butt;stroke-linejoin:miter;stroke-miterlimit:4;stroke-dasharray:none;stroke-dashoffset:0;stroke-opacity:1"
       sodipodi:type="star" />
    <path
       transform="matrix(0,1.6068494,-1.0319638,0,257.55558,-225.36724)"
       inkscape:transform-center-y="-1.7268832e-05"
       inkscape:transform-center-x="0.46831008"
       d="m 148.86913,147.87471 -1.57199,-2.72276 3.14397,0 z"
       inkscape:randomized="0"
       inkscape:rounded="0"
       inkscape:flatsided="true"
       sodipodi:arg2="2.6179939"
       sodipodi:arg1="1.5707963"
       sodipodi:r2="0.90758568"
       sodipodi:r1="1.8151714"
       sodipodi:cy="146.05954"
       sodipodi:cx="148.86913"
       sodipodi:sides="3"
       id="path1840-3-6-4"
       style="display:inline;opacity:0.98999999;vector-effect:none;fill:#ffffff;fill-opacity:1;stroke:#ffffff;stroke-width:2.79400015;stroke-linecap:butt;stroke-linejoin:miter;stroke-miterlimit:4;stroke-dasharray:none;stroke-dashoffset:0;stroke-opacity:1"
       sodipodi:type="star" />
    <circle
       r="1.921"
       cy="18.897091"
       cx="93.493187"
       id="path1878-1"
       style="display:inline;opacity:0.98999999;vector-effect:none;fill:#ffffff;fill-opacity:1;stroke:none;stroke-width:2.79400015;stroke-linecap:butt;stroke-linejoin:miter;stroke-miterlimit:4;stroke-dasharray:none;stroke-dashoffset:0;stroke-opacity:1" />
    <circle
       r="1.921"
       cy="18.897091"
       cx="102.05704"
       id="path1878-7-4"
       style="display:inline;opacity:0.98999999;vector-effect:none;fill:#ffffff;fill-opacity:1;stroke:none;stroke-width:2.79400015;stroke-linecap:butt;stroke-linejoin:miter;stroke-miterlimit:4;stroke-dasharray:none;stroke-dashoffset:0;stroke-opacity:1" />
  </g>
</svg>
