<?xml version="1.0" standalone="no"?>
<!DOCTYPE svg PUBLIC "-//W3C//DTD SVG 20010904//EN"
 "http://www.w3.org/TR/2001/REC-SVG-20010904/DTD/svg10.dtd">
<svg version="1.0" xmlns="http://www.w3.org/2000/svg"
 width="700.000000pt" height="700.000000pt" viewBox="0 0 700.000000 700.000000"
 preserveAspectRatio="xMidYMid meet">
<metadata>
Created by potrace 1.11, written by Peter Selinger 2001-2013
</metadata>
<g transform="translate(0.000000,700.000000) scale(0.100000,-0.100000)"
fill="#000000" stroke="none">
<path d="M465 5471 c-2 -1 159 -129 358 -284 199 -154 466 -361 592 -459 127
-99 237 -184 245 -191 8 -7 85 -66 170 -132 85 -66 162 -125 170 -132 8 -6 74
-57 145 -113 72 -55 137 -106 145 -113 9 -7 42 -32 75 -57 33 -25 62 -47 65
-50 3 -3 34 -28 70 -55 36 -28 72 -55 80 -62 8 -7 94 -74 190 -148 96 -75 189
-147 205 -160 17 -12 127 -98 245 -189 118 -92 222 -172 230 -179 9 -6 23 -18
32 -25 15 -12 35 0 170 104 84 66 160 124 168 131 8 7 132 103 275 213 143
111 267 206 275 213 8 7 69 54 135 105 66 51 127 99 135 105 8 7 112 87 230
179 118 92 325 253 460 357 135 105 276 215 314 243 37 29 85 67 106 83 21 17
125 97 231 180 107 82 196 152 199 155 3 3 21 17 40 30 19 13 37 27 40 30 3 4
67 54 143 113 76 59 133 107 125 108 -37 3 -6060 3 -6063 0z"/>
<path d="M570 3481 l0 -1635 28 25 c15 14 49 45 76 70 28 24 60 53 71 64 12
11 57 52 100 90 44 39 87 77 95 85 9 8 34 31 56 50 39 35 69 62 238 215 49 44
102 91 119 105 16 14 44 39 61 55 17 17 74 68 126 115 107 95 166 148 190 170
9 8 54 49 100 90 47 41 90 80 96 85 6 6 48 44 94 85 46 41 95 86 109 99 14 12
77 69 139 124 62 56 111 104 110 107 -2 3 -30 31 -64 60 -33 30 -100 91 -149
135 -49 44 -99 89 -111 100 -12 11 -55 49 -95 85 -40 36 -77 70 -83 75 -6 6
-58 53 -116 105 -58 52 -123 111 -145 131 -65 59 -637 572 -674 604 -18 17
-46 41 -61 55 -15 14 -65 59 -111 100 -46 41 -106 95 -134 120 -27 25 -53 50
-57 55 -4 6 -8 -725 -8 -1624z"/>
<path d="M6365 5052 c-28 -26 -86 -78 -129 -117 -43 -38 -95 -85 -115 -104
-20 -18 -67 -61 -106 -95 -38 -33 -76 -68 -85 -76 -9 -8 -56 -51 -105 -95
-138 -123 -299 -269 -305 -275 -3 -3 -43 -39 -90 -80 -47 -41 -87 -77 -90 -80
-3 -3 -72 -66 -155 -140 -82 -74 -152 -137 -155 -140 -3 -3 -48 -43 -100 -90
-52 -47 -100 -89 -106 -95 -6 -5 -42 -38 -80 -71 -38 -34 -82 -74 -98 -89
l-28 -26 28 -28 c16 -15 72 -65 124 -112 52 -46 102 -91 110 -99 9 -8 54 -49
100 -90 146 -130 204 -182 245 -219 80 -73 162 -148 244 -221 47 -41 89 -79
95 -85 6 -5 34 -30 61 -54 28 -24 73 -65 100 -90 28 -25 93 -84 145 -131 52
-47 97 -87 100 -90 3 -3 43 -39 90 -80 46 -41 94 -84 106 -95 11 -11 54 -49
94 -85 40 -36 83 -74 95 -85 12 -11 33 -31 48 -44 l27 -24 0 1626 c0 895 -3
1627 -7 1627 -5 0 -31 -22 -58 -48z"/>
<path d="M2346 2689 c-63 -10 -180 -68 -226 -112 -112 -106 -159 -219 -155
-367 2 -104 17 -156 68 -237 87 -140 235 -224 395 -224 112 0 164 14 253 67
100 60 167 146 210 272 21 61 21 225 0 277 -7 17 -11 30 -9 30 5 0 -54 97 -76
123 -63 76 -150 136 -235 161 -55 16 -160 21 -225 10z"/>
<path d="M4440 2680 c-156 -47 -266 -147 -323 -295 -26 -66 -32 -235 -10 -297
41 -121 113 -213 213 -272 84 -51 140 -67 240 -67 132 -1 240 43 335 135 103
102 146 211 141 354 -6 143 -47 232 -156 339 -101 99 -300 145 -440 103z"/>
</g>
</svg>
